<?xml version="1.0" encoding="UTF-8" standalone="no"?>
<!DOCTYPE svg PUBLIC "-//W3C//DTD SVG 1.1//EN" "http://www.w3.org/Graphics/SVG/1.1/DTD/svg11.dtd">
<svg xmlns="http://www.w3.org/2000/svg" xmlns:xlink="http://www.w3.org/1999/xlink" version="1.1" width="375pt" height="375pt" viewBox="0 0 375 375">
<g enable-background="new">
<clipPath id="cp80">
<path transform="matrix(.24,0,0,.24,0,0)" d="M 0 0 L 1562.5 0 L 1562.5 1593.75 L 0 1593.75 Z " fill-rule="evenodd"/>
</clipPath>
<g clip-path="url(#cp80)">
<path transform="matrix(.75,0,0,.75,0,0)" d="M 0 0 L 500 0 L 500 510 L 0 510 Z " fill="#ffffff"/>
<path transform="matrix(.75,0,0,.75,0,0)" d="M 0 0 L 500 0 L 500 500 L 0 500 Z " fill="#ffffff"/>
</g>
<clipPath id="cp81">
<path transform="matrix(.24,0,0,.24,0,0)" d="M 0 0 L 1562.5 0 L 1562.5 1562.5 L 0 1562.5 Z " fill-rule="evenodd"/>
</clipPath>
<g clip-path="url(#cp81)">
<path transform="matrix(.75,0,0,.75,0,0)" d="M 0 0 L 500 0 L 500 500 L 0 500 Z " fill="#ffffff"/>
</g>
<clipPath id="cp82">
<path transform="matrix(.24,0,0,.24,0,0)" d="M 0 0 L 1562.5 0 L 1562.5 1562.5 L 0 1562.5 Z " fill-rule="evenodd"/>
</clipPath>
<g clip-path="url(#cp82)">
<path transform="matrix(.75,0,0,.75,0,0)" d="M 0 0 L 500 0 L 500 500 L 0 500 Z " fill="#ffffff"/>
</g>
<clipPath id="cp83">
<path transform="matrix(.24,0,0,.24,0,0)" d="M 156.25 181.70803 L 1406.25 181.70803 L 1406.25 1431.708 L 156.25 1431.708 Z " fill-rule="evenodd"/>
</clipPath>
<g clip-path="url(#cp83)">
<path transform="matrix(1.5136225,0,0,1.5136225,37.5,43.609926)" d="M 194.18 194.18 L 35.35 194.18 L 4 162.82 L 162.82 162.82 L 194.18 194.18 Z " fill="#0b274d"/>
<path transform="matrix(1.5136225,0,0,1.5136225,37.5,43.609926)" d="M 194.18 35.35 L 194.18 194.18 L 162.81999 162.81999 L 162.81999 4 L 194.18 35.35 Z " fill="#3e7ab8"/>
<path transform="matrix(1.5136225,0,0,1.5136225,37.5,43.609926)" d="M 4 4 L 162.82 4 L 162.82 162.82 L 4 162.82 Z " fill="#a0c6ed"/>
<path transform="matrix(1.5136225,0,0,1.5136225,37.5,43.609926)" d="M 197.828 195.806 C 197.858 195.74 197.881 195.671 197.907 195.602 C 197.967 195.444 198.017 195.283 198.05699 195.11801 C 198.07399 195.046 198.09299 194.97402 198.10599 194.90102 C 198.14899 194.66602 198.17899 194.42601 198.17899 194.18102 L 198.17899 35.351 C 198.17899 34.289 197.75798 33.272005 197.00699 32.522005 L 165.64699 1.1710034 C 165.62899 1.1530033 165.607 1.1410034 165.58798 1.1230034 C 165.41698 .9580034 165.23499 .80600336 165.03699 .6730033 C 164.93698 .60700336 164.829 .56000337 164.72499 .5040033 C 164.59999 .43600328 164.48 .3600033 164.34799 .30600328 C 164.219 .25300328 164.08399 .22200327 163.95 .18200326 C 163.833 .14700327 163.721 .10300325 163.59999 .07900326 C 163.36299 .032003259 163.122 .010003254 162.881 .006003253 C 162.859 .006003253 162.83899 .0000032531098 162.817 .0000032531098 L 4 .0000032531098 C 1.7909999 0 0 1.7909999 0 4 L 0 162.82 C 0 162.82701 .002 162.83402 .002 162.841 C .003 163.097 .029000003 163.352 .079 163.604 C .102000009 163.71901 .14500001 163.825 .17700002 163.936 C .21700002 164.076 .25000004 164.216 .30600003 164.352 C .35900004 164.479 .43200005 164.595 .49800004 164.716 C .55700007 164.825 .605 164.937 .674 165.041 C .806 165.238 .95800009 165.419 1.122 165.59 C 1.14 165.609 1.152 165.632 1.171 165.65 L 32.521 197.01 C 33.271 197.76 34.289 198.18199 35.35 198.18199 L 194.18 198.18199 C 194.44199 198.18199 194.70499 198.155 194.965 198.103 C 195.152 198.065 195.328 198.002 195.504 197.939 C 195.57199 197.915 195.642 197.905 195.709 197.877 C 195.712 197.87599 195.714 197.874 195.717 197.873 C 195.756 197.857 195.79 197.834 195.82799 197.817 C 196.00699 197.73601 196.178 197.644 196.33998 197.539 C 196.40299 197.49901 196.46099 197.455 196.52199 197.411 C 196.65799 197.312 196.786 197.207 196.90699 197.093 C 196.95899 197.045 197.00998 196.998 197.05898 196.947 C 197.20497 196.794 197.34098 196.63301 197.46097 196.46 C 197.47296 196.442 197.48796 196.42801 197.49997 196.41 C 197.628 196.219 197.735 196.016 197.828 195.806 Z M 190.18 184.523 L 166.81999 161.163 L 166.81999 13.655 L 190.18 37.008 L 190.18 184.523 Z M 8 8 L 158.82 8 L 158.82 158.82 L 8 158.82 L 8 8 Z M 13.655 166.82 L 161.163 166.82 L 184.523 190.18001 L 37.007 190.18001 L 13.655 166.82 Z "/>
</g>
<clipPath id="cp84">
<path transform="matrix(.24,0,0,.24,0,0)" d="M 369.5946 806.70809 L 994.5946 806.70809 L 994.5946 1137.958 L 369.5946 1137.958 Z " fill-rule="evenodd"/>
</clipPath>
<g clip-path="url(#cp84)">
<path transform="matrix(.8017103,0,0,.8017103,81.56748,184.77629)" d="M 11.38 48.74 C 9.88 50.550004 8.93 52.59 9.12 54.97 C 9.67 62.13 12.17 68.43 17.619999 73.32 C 24.419999 79.42 32.62 82.93 41.16 85.66 C 63.91 92.93 87.17 93.66 110.67 90.76 C 114.659999 90.270008 118.659999 89.75 122.5 88.47 C 128.23 87.71 133.93 86.78 139.45999 85 C 139.87999 85.18 140.21999 85.03 140.51999 84.73 C 140.91999 84.91 141.26 84.840007 141.54 84.490009 L 141.59999 84.47001 C 142.20999 84.65001 142.70999 84.45001 143.15999 84.05001 C 143.56999 84.22001 143.90999 84.11001 144.18999 83.77001 L 144.19998 83.77001 C 144.81998 83.960018 145.32999 83.73001 145.78998 83.34001 C 146.20998 83.500019 146.53998 83.37001 146.81998 83.04001 C 147.44998 83.240009 147.94998 82.98001 148.40998 82.59001 C 148.82997 82.750019 149.15998 82.61001 149.43997 82.280017 C 150.09998 82.48001 150.61997 82.17001 151.09998 81.780017 C 157.41999 80.430019 163.31998 77.76002 169.89998 75.48001 C 169.28998 76.54001 169.02999 77.11001 168.66999 77.60001 C 164.40999 83.500019 160.37999 89.52001 156.71999 95.83002 C 155.13999 98.55002 155.52999 100.35001 156.95999 102.540019 C 156.96999 103.540019 157.67 104.13001 158.37999 104.610019 C 159.12999 105.110019 159.81999 105.55002 159.80998 106.58002 C 159.78998 108.58002 161.14998 109.62002 162.79999 109.81002 C 164.37999 110.00002 165.02999 108.46002 165.62999 107.21002 C 168.01 102.24002 170.87 97.55002 173.93999 92.99002 C 175.23999 91.650028 176.46999 90.28002 177.04 88.45002 C 177.29999 88.08002 177.56999 87.72002 177.82999 87.35002 C 179.07999 85.81002 180.33998 84.27002 181.58998 82.73002 C 181.63999 81.71002 182.37998 81.02002 182.83998 80.20002 C 182.90999 80.08002 182.96999 79.95002 183.01998 79.82002 C 183.72998 79.09002 184.44997 78.36002 185.16997 77.620029 C 186.58997 75.84003 187.99997 74.07002 189.41997 72.29002 C 191.13997 70.66003 192.92996 69.10002 194.55997 67.39002 C 195.40998 66.49002 195.98996 65.31002 193.85997 65.24002 C 192.75997 65.21002 193.03997 64.76002 193.45998 64.19002 C 193.87998 63.620019 194.58998 63.130018 194.09998 62.25002 C 193.16999 58.91002 191.81998 56.030019 188.05998 54.84002 C 186.36998 54.31002 184.83998 54.46002 183.23998 54.59002 C 166.84998 55.91002 150.45998 55.83002 134.05997 54.98002 C 131.79998 54.86002 129.53997 54.620019 127.27997 54.370019 C 126.21997 54.25002 125.42997 54.43002 125.60997 55.670019 C 126.05997 58.700017 126.93997 61.510019 130.02997 62.950017 C 130.86997 64.320018 132.10997 65.06001 133.66997 65.34002 C 140.92996 66.64002 148.22997 67.48002 155.61997 66.860019 C 155.74997 67.10001 155.93997 67.20001 156.20996 67.180019 C 156.28997 67.41002 156.38996 67.63001 156.51996 67.84002 C 151.87996 68.75002 147.53997 70.67002 143.01996 71.99002 C 142.61997 72.11002 142.55995 72.49002 142.92996 72.81002 C 122.049968 78.29002 100.84996 80.67002 79.229969 80.46002 C 64.159969 80.31002 49.619966 78.05002 35.469968 73.04002 C 28.919968 70.720027 22.579968 67.940029 17.189967 63.400026 C 14.669966 61.280027 14.589966 60.760026 16.699967 58.200025 C 19.139967 55.240026 22.279967 53.110025 25.559967 51.200025 C 36.259969 44.970026 47.42997 39.760026 59.079969 35.570024 C 73.44997 30.400023 88.14996 26.290024 102.759967 21.910023 C 103.479969 21.690024 104.20996 21.480023 104.94997 21.330023 C 105.91997 21.130023 106.14996 20.450024 105.979969 19.640023 C 105.339969 16.590023 103.259967 14.410023 101.07996 12.500023 C 99.52996 11.1500229 97.39996 12.090023 95.59996 12.520023 C 84.79996 15.100023 74.009967 17.700024 63.429964 21.120024 C 62.239965 21.500023 61.09996 22.030024 59.93996 22.490025 C 59.46996 22.310025 59.10996 22.460024 58.839963 22.860026 L 58.79996 22.880026 C 58.15996 22.730027 57.64996 22.950026 57.24996 23.450026 C 56.579965 23.260025 56.089963 23.560027 55.65996 24.040026 C 52.089963 24.790026 48.879964 26.470026 45.59996 27.950026 C 43.53996 28.880026 41.54996 29.950026 40.19996 31.880026 C 31.889958 35.500028 23.80996 39.570028 16.209959 44.540025 C 14.44 45.71 12.76 47.07 11.38 48.74 Z M 162.81 106.25 C 162.81 106.25 162.82 106.25 162.81 106.25 C 162.81999 106.29 162.81999 106.32 162.83 106.37 C 162.81 106.33 162.82 106.29 162.81 106.25 Z M 190.89 69.28 C 190.86 69.35 190.81999 69.409999 190.78 69.479999 C 190.76 69.42 190.74 69.35 190.70999 69.28999 C 190.77 69.29 190.83 69.29 190.89 69.28 Z M 190.69 67.31 C 191.04001 67.03 191.40001 67 191.78 67.25 C 191.59 67.52 191.39 67.79 191.2 68.05 C 190.95 68.39 190.7 68.740009 190.45 69.08 C 190.39 69.16 190.34 69.23 190.28 69.310009 C 187.45999 72.670009 184.64 76.03001 181.81999 79.39001 C 181.82999 79.62001 181.87 79.840007 181.92 80.07001 C 181.91 80.08001 181.9 80.090007 181.9 80.100009 C 180.95 81.21001 180 82.310009 179.04999 83.420009 C 178.09999 84.65001 177.15999 85.880008 176.20999 87.11001 C 175.98 87.41001 175.74999 87.71001 175.51999 88.01001 C 175.51 88.23001 175.54 88.45001 175.62 88.65001 C 174.09 90.59001 172.56999 92.54001 171.04 94.48001 C 169.89 95.84001 168.75 97.20001 167.59999 98.56001 C 167.45999 98.73001 167.31 98.90001 167.17 99.070018 C 167.14 99.070018 167.12 99.070018 167.09999 99.070018 C 167.07999 99.05002 167.06 99.040019 167.04 99.02001 C 166.86 98.87001 166.68 98.72001 166.5 98.570018 C 167.49 97.08002 168 95.290019 169.37 94.030017 C 172.5 89.26002 175.84 84.65002 179.59999 80.360019 C 179.59999 80.360019 179.60999 80.35001 179.60999 80.35001 C 180.65999 78.16001 182.10999 76.250019 183.82999 74.55001 C 184.95999 72.86001 186.23999 71.29001 187.71999 69.90001 C 188.52 68.82 189.13 67.52 190.69 67.31 Z M 95.7 89.58 Z M 95.76 89.57 Z M 96.83 89.48 Z M 103.23 88.93 Z M 104.3 88.84 Z M 105.37 88.75 Z M 106.43 88.65 Z M 107.5 88.56 Z M 108.57 88.47 Z M 109.64 88.38 Z M 117.55 87.19 C 117.56 87.19 117.56 87.19 117.55 87.19 C 117.670009 87.170009 117.78001 87.14 117.89 87.130008 C 117.94 87.130008 117.99 87.12 118.04 87.12 C 117.88 87.14 117.72 87.17 117.55 87.19 Z M 118.67 87.06 Z M 118.7 87.06 C 118.71 87.06 118.71 87.06 118.7 87.06 C 118.939998 87.04 119.17 87.02 119.399997 86.99 C 119.409999 86.99 119.409999 86.99 119.41999 86.99 C 119.19 87.02 118.95 87.04 118.7 87.06 Z M 149.76 79.55 C 149.81999 79.58 149.84999 79.65 149.84999 79.770008 C 149.79999 79.700008 149.73 79.65 149.67 79.62 C 149.7 79.59 149.73 79.58 149.76 79.55 C 149.73 79.54 149.70999 79.54 149.68 79.54 C 149.71 79.54 149.74 79.54 149.76 79.55 Z M 147.13 80.31 C 147.11 80.31 147.09001 80.31 147.08 80.31 C 147.1 80.299999 147.12 80.299999 147.15001 80.29 C 147.14 80.3 147.14 80.3 147.13 80.31 Z M 158.62 68.13 C 158.64 68.03 158.69 67.95 158.73999 67.88 C 158.74999 67.869998 158.74999 67.85 158.76 67.84 C 158.78 67.82 158.81 67.81 158.81999 67.78999 C 158.87999 67.73999 158.93999 67.67999 159.01999 67.649997 C 159.06999 67.689998 159.12 67.71999 159.16999 67.74999 C 159.29999 67.85999 159.43999 67.95999 159.58998 68.03999 C 159.36998 68.159999 159.14998 68.27 158.92998 68.38999 C 158.85 68.27 158.75 68.18 158.62 68.13 Z M 119.76 86.94 C 119.73 86.94 119.700008 86.950008 119.670009 86.950008 C 119.7 86.95 119.73 86.94 119.76 86.94 Z M 110.76 88.25 C 110.75 88.25 110.75 88.26 110.740009 88.26 C 110.73 88.26 110.71001 88.270008 110.700008 88.270008 C 110.69 88.270008 110.69 88.270008 110.68001 88.26 C 110.71 88.26 110.73 88.25 110.76 88.25 Z M 109.68 88.37 Z M 109.59 88.38 Z M 108.62 88.47 Z M 108.52 88.47 Z M 107.55 88.56 Z M 107.45 88.57 Z M 105.42 88.74 Z M 105.32 88.75 Z M 104.35 88.83 Z M 104.25 88.84 Z M 103.28 88.92 Z M 103.19 88.93 Z M 102.21 89.02 Z M 102.12 89.02 C 102.12 89.02 102.11 89.02 102.12 89.02 C 102.11 89.02 102.11 89.02 102.12 89.02 C 102.11 89.02 102.12 89.02 102.12 89.02 Z M 101.15 89.11 Z M 101.05 89.12 C 101.05 89.12 101.04 89.12 101.05 89.12 C 101.04 89.12 101.04 89.12 101.05 89.12 C 101.04 89.12 101.05 89.12 101.05 89.12 Z M 100.08 89.2 Z M 99.98 89.21 C 99.97 89.21 99.97 89.21 99.98 89.21 Z M 99.02 89.29 C 99.02 89.29 99.01 89.29 99.02 89.29 C 99.01 89.29 99.01 89.29 99.02 89.29 C 99.01 89.29 99.02 89.29 99.02 89.29 Z M 98.91 89.3 Z M 97.95 89.38 Z M 97.84 89.39 C 97.84 89.39 97.83 89.39 97.84 89.39 C 97.83 89.39 97.83 89.39 97.84 89.39 C 97.83 89.39 97.84 89.39 97.84 89.39 Z M 96.88 89.47 Z M 96.77 89.48 Z M 95.82 89.57 Z M 94.75 89.66 Z M 94.63 89.67 Z M 93.71 89.73 C 93.68 89.740009 93.659999 89.73 93.63 89.73 C 93.63 89.73 93.619998 89.73 93.619998 89.72 L 93.619998 89.73 L 93.619998 89.72 C 93.619998 89.72 93.60999 89.72 93.60999 89.73 C 93.59999 89.73 93.579998 89.73 93.56999 89.73 L 93.55999 89.72 C 93.61 89.72 93.66 89.73 93.71 89.73 Z " fill="#ffffff"/>
<path transform="matrix(.8017103,0,0,.8017103,81.56748,184.77629)" d="M 169.37 94.04 C 169.62 94.020008 169.83 93.96 170.03 93.88 C 169.82 93.95 169.6 94 169.37 94.04 Z " fill="#ffffff"/>
<path transform="matrix(.8017103,0,0,.8017103,81.56748,184.77629)" d="M 175.32 88.23 C 175.3 88.26 175.27 88.28001 175.25 88.310009 C 175.22 88.350009 175.19 88.380008 175.16 88.420009 C 175.19 88.380008 175.22 88.350009 175.25 88.310009 C 175.28 88.28 175.3 88.26 175.32 88.23 Z " fill="#ffffff"/>
</g>
<clipPath id="cp85">
<path transform="matrix(.24,0,0,.24,0,0)" d="M 366.61656 403.72746 L 994.7416 403.72746 L 994.7416 972.4774 L 366.61656 972.4774 Z " fill-rule="evenodd"/>
</clipPath>
<g clip-path="url(#cp85)">
<path transform="matrix(7.178571,0,0,7.178188,77.220119,79.00633)" d="M 9 5 C 12 8 12 13 12 13 C 12 13 6 12 4 10 C 2 8 2 3 2 3 C 2 3 7 3 9 5 Z M 15 5 C 12 8 12 13 12 13 C 12 13 18 12 20 10 C 22 8 22 3 22 3 C 22 3 17 3 15 5 Z " fill="#ffffff"/>
<path transform="matrix(7.178571,0,0,7.178188,77.220119,79.00633)" d="M 11.5 13.4172 L 11.5 21 C 11.5 21.2764 11.7236 21.5 12 21.5 C 12.2764 21.5 12.5 21.2764 12.5 21 L 12.5 13.4172 C 13.9185 13.1476 18.554902 12.1521 20.3535 10.3535 C 22.475602 8.2314009 22.5 3.2124005 22.5 3.0000005 C 22.5 2.7236005 22.2764 2.5000005 22 2.5000005 C 21.7876 2.5000005 16.7686 2.5244005 14.6465 4.6465008 C 13.198999 6.094001 12.4221 7.953601 12 9.553501 C 11.5779 7.953601 10.801 6.094001 9.3535 4.646501 C 7.2314 2.5244 2.2124 2.5 2 2.5 C 1.7235999 2.5 1.5 2.7236 1.5 3 C 1.5 3.2124 1.5244 8.2314 3.6465 10.3535 C 5.4451 12.152101 10.0816 13.1476 11.5 13.4172 Z M 15.3535 5.3535006 C 16.8237 3.8838006 20.1924 3.5791004 21.4839 3.5161005 C 21.4209 4.8076007 21.1162 8.1763 19.6465 9.646501 C 18.145 11.148001 14.084 12.080601 12.531799 12.391101 C 12.642599 11.005401 13.1387 7.5683009 15.3536 5.353501 L 15.3535 5.3535006 Z M 8.646501 5.3535006 C 10.8613 7.5683004 11.357401 11.0054 11.468301 12.3911 C 9.9161009 12.0806 5.855001 11.1479 4.353601 9.6465 C 2.8839012 8.1763 2.579201 4.8075997 2.516201 3.5160995 C 3.807701 3.5790995 7.176401 3.8837996 8.646601 5.3534996 L 8.646501 5.3535006 Z " fill="#0f172a"/>
</g>
</g>
</svg>
